# xmcd
#
# Track frame offsets:
#	150
#	12936
#	32147
#	48849
#	61877
#	79953
#	95835
#	122440
#	135269
#	149173
#	161103
#	171653
#	185447
#	205589
#	227590
#
# Disc length: 3291 seconds
#
# Revision: 2
# Processed by: cddbd v1.5.2PL0 Copyright (c) Steve Scherf et al.
# Submitted via: audiograbber 1.83.01
#
DISCID=cf0cd90f
DTITLE=Various Artist - Jazzlounge CD2
DYEAR=2008
DGENRE=Jazz
TTITLE0=New York City - Cecilia Weston
TTITLE1=Manhattan - Blossom Deary
TTITLE2=All the way - James Brown
TTITLE3=My Heart belongs to Daddy - Anita O'Day
TTITLE4=I cant stand losing you - Curtis Stigers
TTITLE5=That's all - Sarah Vaughan
TTITLE6=Cheek to Cheek - Armstrong - Fitzgerald
TTITLE7=Garota de Ipanema - Sergio Mendes Trio
TTITLE8=April in Paris - Billie Holiday
TTITLE9=Sunny - Les McCann
TTITLE10=Agua de Beber - Astrud Gilberto
TTITLE11=Moonlight Cocktail - Mel Torme
TTITLE12=Stormy Weather - Gladys Night
TTITLE13=Coyote Moon - Terry Callier
TTITLE14=Easy - Commodores
EXTD=YEAR: 2008
EXTT0=
EXTT1=
EXTT2=
EXTT3=
EXTT4=
EXTT5=
EXTT6=
EXTT7=
EXTT8=
EXTT9=
EXTT10=
EXTT11=
EXTT12=
EXTT13=
EXTT14=
PLAYORDER=
